<mxfile host="app.diagrams.net" modified="2024-04-02T00:57:33.752Z" agent="Mozilla/5.0 (Windows NT 10.0; Win64; x64) AppleWebKit/537.36 (KHTML, like Gecko) Chrome/123.0.0.0 Safari/537.36" etag="iLFtiZ4JbcJBzRpcEtmD" version="24.2.1" type="github">
  <diagram name="페이지-1" id="DnrLCoqp0zNMLl07k5V4">
    <mxGraphModel dx="2166" dy="1190" grid="1" gridSize="10" guides="1" tooltips="1" connect="1" arrows="1" fold="1" page="0" pageScale="1" pageWidth="827" pageHeight="1169" math="0" shadow="0">
      <root>
        <mxCell id="0" />
        <mxCell id="1" parent="0" />
        <mxCell id="U_HySxkz3RupUNM9T2fn-3" value="&lt;font style=&quot;font-size: 16px;&quot;&gt;학생&lt;/font&gt;" style="whiteSpace=wrap;html=1;align=center;rounded=1;" vertex="1" parent="1">
          <mxGeometry x="-290" width="100" height="40" as="geometry" />
        </mxCell>
        <mxCell id="U_HySxkz3RupUNM9T2fn-9" value="학과코드" style="ellipse;whiteSpace=wrap;html=1;align=center;fontStyle=4;rounded=1;" vertex="1" parent="1">
          <mxGeometry x="-290" y="80" width="100" height="40" as="geometry" />
        </mxCell>
        <mxCell id="U_HySxkz3RupUNM9T2fn-10" value="이름" style="ellipse;whiteSpace=wrap;html=1;align=center;rounded=1;" vertex="1" parent="1">
          <mxGeometry x="-380" y="-80" width="100" height="40" as="geometry" />
        </mxCell>
        <mxCell id="U_HySxkz3RupUNM9T2fn-11" value="키" style="ellipse;whiteSpace=wrap;html=1;align=center;rounded=1;" vertex="1" parent="1">
          <mxGeometry x="-450" width="100" height="40" as="geometry" />
        </mxCell>
        <mxCell id="U_HySxkz3RupUNM9T2fn-13" value="학번" style="ellipse;whiteSpace=wrap;html=1;align=center;rounded=1;" vertex="1" parent="1">
          <mxGeometry x="-200" y="-80" width="100" height="40" as="geometry" />
        </mxCell>
        <mxCell id="U_HySxkz3RupUNM9T2fn-14" value="" style="endArrow=none;html=1;rounded=0;fontSize=12;startSize=8;endSize=8;curved=1;entryX=0.5;entryY=1;entryDx=0;entryDy=0;exitX=0.5;exitY=0;exitDx=0;exitDy=0;" edge="1" parent="1" source="U_HySxkz3RupUNM9T2fn-3" target="U_HySxkz3RupUNM9T2fn-13">
          <mxGeometry relative="1" as="geometry">
            <mxPoint x="-270" y="-20" as="sourcePoint" />
            <mxPoint x="-110" y="-20" as="targetPoint" />
          </mxGeometry>
        </mxCell>
        <mxCell id="U_HySxkz3RupUNM9T2fn-15" value="" style="endArrow=none;html=1;rounded=0;fontSize=12;startSize=8;endSize=8;curved=1;exitX=0.5;exitY=1;exitDx=0;exitDy=0;entryX=0.5;entryY=0;entryDx=0;entryDy=0;" edge="1" parent="1" source="U_HySxkz3RupUNM9T2fn-10" target="U_HySxkz3RupUNM9T2fn-3">
          <mxGeometry relative="1" as="geometry">
            <mxPoint x="-270" y="-20" as="sourcePoint" />
            <mxPoint x="-110" y="-20" as="targetPoint" />
          </mxGeometry>
        </mxCell>
        <mxCell id="U_HySxkz3RupUNM9T2fn-16" value="" style="endArrow=none;html=1;rounded=0;fontSize=12;startSize=8;endSize=8;curved=1;exitX=1;exitY=0.5;exitDx=0;exitDy=0;entryX=0;entryY=0.5;entryDx=0;entryDy=0;" edge="1" parent="1" source="U_HySxkz3RupUNM9T2fn-11" target="U_HySxkz3RupUNM9T2fn-3">
          <mxGeometry relative="1" as="geometry">
            <mxPoint x="-320" y="-30" as="sourcePoint" />
            <mxPoint x="-230" y="10" as="targetPoint" />
          </mxGeometry>
        </mxCell>
        <mxCell id="U_HySxkz3RupUNM9T2fn-17" value="" style="endArrow=none;html=1;rounded=0;fontSize=12;startSize=8;endSize=8;curved=1;exitX=0.5;exitY=1;exitDx=0;exitDy=0;" edge="1" parent="1" source="U_HySxkz3RupUNM9T2fn-3">
          <mxGeometry relative="1" as="geometry">
            <mxPoint x="-340" y="30" as="sourcePoint" />
            <mxPoint x="-240" y="80" as="targetPoint" />
          </mxGeometry>
        </mxCell>
      </root>
    </mxGraphModel>
  </diagram>
</mxfile>
